PathFileType   4   (X/Y/Z)
DataRate	CameraRate	NumFrames	NumMarkers	Units	OrigDataRate	OrigDataStartFrame	OrigNumFrames
120.0	120.0	4	37	mm	120.0	48	126
Frame#	Time	midhip	hip_r	hip_l	knee_r	knee_l	ankle_r	ankle_l	midasis	asis_r	asis_l	psis_r	psis_l	epicondLat_r	epicondLat_l	epicondMed_r	epicondMed_l	malleolusLat_r	malleolusLat_l	malleolusMedv_r	malleolusMedv_l	neck	subclavicle_r	subclavicle_l	sternalnotch	xyphoidprocess	thighwand_r	thighwand_l	upperleg1_r	upperleg1_l	upperleg2_r	upperleg2_l	shankwand_r	shankwand_l	lowerleg1_r	lowerleg1_l	toe_r	toe_l
 	 	X1	Y1	Z1	X2	Y2	Z2	X3	Y3	Z3	X4	Y4	Z4	X5	Y5	Z5	X6	Y6	Z6	X7	Y7	Z7	X8	Y8	Z8	X9	Y9	Z9	X10	Y10	Z10	X11	Y11	Z11	X12	Y12	Z12	X13	Y13	Z13	X14	Y14	Z14	X15	Y15	Z15	X16	Y16	Z16	X17	Y17	Z17	X18	Y18	Z18	X19	Y19	Z19	X20	Y20	Z20	X21	Y21	Z21	X22	Y22	Z22	X23	Y23	Z23	X24	Y24	Z24	X25	Y25	Z25	X26	Y26	Z26	X27	Y27	Z27	X28	Y28	Z28	X29	Y29	Z29	X30	Y30	Z30	X31	Y31	Z31	X32	Y32	Z32	X33	Y33	Z33	X34	Y34	Z34	X35	Y35	Z35	X36	Y36	Z36	X37	Y37	Z37

	48	0.53333	327.686	732.100	-314.489	313.982	723.466	-245.315	304.300	724.289	-375.267	448.442	399.243	-245.859	222.336	416.862	-359.662	613.941	94.852	-233.985	109.958	73.097	-348.617	380.012	792.042	-315.140	387.517	791.404	-214.411	372.507	792.680	-415.868	225.405	832.694	-270.531	219.574	833.524	-325.371	451.868	400.571	-190.982	209.992	417.458	-412.742	437.366	392.124	-284.719	228.906	396.387	-314.813	606.080	92.004	-197.429	100.260	75.122	-384.266	615.598	99.997	-258.091	110.557	74.647	-317.884	259.502	1202.312	-319.666	361.206	1140.110	-264.956	371.334	1145.046	-340.773	351.863	1141.659	-306.259	378.931	1059.040	-305.591	503.704	547.978	-147.319	396.775	503.075	-406.417	406.980	569.260	-166.874	336.721	577.425	-425.968	438.642	490.687	-181.878	305.452	496.882	-417.545	537.658	186.628	-123.126	148.209	188.326	-463.763	559.025	156.645	-197.333	124.121	157.779	-389.984	710.355	111.284	-214.748	203.399	36.457	-366.015
	49	0.54167	337.427	730.858	-313.940	323.584	721.748	-244.945	313.185	722.810	-374.841	457.574	397.382	-245.318	228.282	416.228	-359.576	627.442	95.231	-233.844	110.777	73.931	-348.785	389.290	790.389	-315.012	397.359	789.564	-214.225	381.221	791.213	-415.800	235.071	831.079	-269.324	228.979	831.993	-324.105	461.413	398.905	-190.473	215.529	417.122	-412.556	447.826	390.532	-284.709	235.162	395.672	-314.492	619.815	92.333	-197.243	100.965	76.177	-384.390	628.938	100.410	-257.933	111.464	75.712	-317.994	268.499	1200.619	-318.936	370.421	1138.567	-264.127	379.638	1143.385	-339.928	360.584	1140.052	-305.251	387.660	1057.434	-304.782	513.906	546.070	-147.744	403.380	500.906	-407.475	417.625	567.525	-166.662	343.636	576.064	-426.237	449.331	489.078	-181.818	311.595	495.635	-417.708	550.431	186.188	-122.755	150.327	189.000	-463.839	571.851	156.616	-196.881	126.161	158.488	-389.916	724.062	112.725	-215.308	203.649	36.502	-366.082
	50	0.55000	347.206	729.557	-313.253	333.366	720.093	-244.346	322.272	721.280	-374.183	467.505	395.921	-244.842	234.448	415.531	-359.455	639.062	94.683	-233.622	111.666	74.881	-349.013	398.743	788.752	-314.703	407.362	787.830	-213.838	390.125	789.674	-415.567	244.815	829.485	-268.090	238.504	830.473	-322.764	471.617	397.539	-190.020	221.331	416.752	-412.339	451.962	388.605	-285.075	241.623	394.759	-314.337	631.693	91.852	-196.962	101.767	77.358	-384.578	640.366	99.872	-257.773	112.342	76.818	-318.203	277.551	1198.914	-318.089	379.939	1137.054	-263.279	389.743	1142.088	-339.214	370.425	1138.580	-304.583	397.919	1056.100	-304.071	524.301	544.412	-147.880	410.163	498.795	-408.313	427.937	566.056	-166.441	350.657	574.639	-426.380	457.295	486.978	-182.054	318.021	494.430	-417.850	562.352	185.498	-122.328	152.643	189.753	-463.939	583.726	155.986	-196.558	128.266	159.346	-389.954	735.961	112.612	-215.682	203.906	36.535	-366.122
	51	0.55833	356.954	728.101	-312.431	343.123	718.493	-243.599	331.512	719.719	-373.390	478.213	394.813	-244.451	240.823	414.803	-359.297	648.850	93.143	-233.328	112.620	75.958	-349.307	408.276	787.114	-314.201	417.305	786.161	-213.271	399.246	788.067	-415.130	254.662	827.916	-266.848	248.167	828.963	-321.344	482.460	396.441	-189.639	227.415	416.351	-412.099	462.474	387.439	-285.128	248.152	393.733	-314.328	641.739	90.475	-196.605	102.673	78.674	-384.841	649.950	98.364	-257.576	113.301	78.239	-318.554	286.673	1197.236	-317.221	388.160	1135.203	-262.399	398.867	1140.589	-338.274	379.136	1136.940	-303.846	406.516	1054.422	-303.405	534.881	543.033	-147.715	417.159	496.757	-408.881	438.195	564.790	-166.108	357.968	573.144	-426.200	467.806	485.472	-181.966	324.759	493.327	-417.862	573.326	184.485	-121.864	155.187	190.588	-464.066	594.469	154.710	-196.216	130.493	160.358	-390.138	746.069	110.879	-215.857	204.167	36.562	-366.157
